<svg width="495" height="425" viewBox="0 0 495 425" fill="none" xmlns="http://www.w3.org/2000/svg">
<g id="undraw_personal_information_962o 1" clip-path="url(#clip0)">
<path id="Vector" d="M0 0V205.79H166.204V0H0ZM84.4571 201.316C83.5639 201.316 82.6907 200.988 81.9479 200.373C81.2052 199.759 80.6263 198.886 80.2845 197.864C79.9427 196.842 79.8532 195.718 80.0275 194.633C80.2018 193.548 80.6319 192.552 81.2635 191.769C81.8952 190.987 82.6999 190.455 83.576 190.239C84.4521 190.023 85.3602 190.134 86.1855 190.557C87.0108 190.981 87.7161 191.697 88.2124 192.617C88.7087 193.537 88.9736 194.618 88.9736 195.724C88.9736 197.207 88.4977 198.629 87.6507 199.678C86.8037 200.727 85.655 201.316 84.4571 201.316V201.316Z" fill="#50A3A2"/>
<path id="Vector_2" d="M449.415 61.4538L462.359 56.4566L463.476 42.3413C463.476 42.3413 431.993 27.6164 421.927 53.6622C418.374 62.8586 413.894 68.3816 409.586 71.6787C403.653 76.2204 396.339 76.7533 389.786 73.7902C367.966 63.9235 362.828 91.9819 362.828 91.9819C362.828 91.9819 364.714 95.9761 378.164 96.9581C384.858 97.4469 390.335 103.684 394.148 109.826C402.314 122.979 419.088 119.178 423.206 103.391C423.273 103.137 423.338 102.879 423.403 102.618C429.836 76.5212 459.128 97.2993 459.128 97.2993L460.998 73.6623L449.415 61.4538Z" fill="#2F2E41"/>
<path id="Vector_3" d="M361.216 125.333C369.972 125.333 377.07 116.545 377.07 105.703C377.07 94.862 369.972 86.0734 361.216 86.0734C352.46 86.0734 345.362 94.862 345.362 105.703C345.362 116.545 352.46 125.333 361.216 125.333Z" fill="#2F2E41"/>
<path id="Vector_4" d="M353.289 210.396C376.638 210.396 395.566 186.96 395.566 158.05C395.566 129.139 376.638 105.703 353.289 105.703C329.94 105.703 311.012 129.139 311.012 158.05C311.012 186.96 329.94 210.396 353.289 210.396Z" fill="#2F2E41"/>
<path id="Vector_5" d="M351.968 213.122C368.021 213.122 381.034 197.01 381.034 177.134C381.034 157.258 368.021 141.146 351.968 141.146C335.916 141.146 322.903 157.258 322.903 177.134C322.903 197.01 335.916 213.122 351.968 213.122Z" fill="#A0616A"/>
<path id="Vector_6" d="M340.518 204.398L345.803 239.295L372.226 234.933C372.226 234.933 367.822 207.669 370.464 200.036L340.518 204.398Z" fill="#A0616A"/>
<path id="Vector_7" d="M210.164 339.626C210.164 339.626 180.217 317.815 177.575 333.083C174.933 348.35 207.521 354.893 207.521 354.893L210.164 339.626Z" fill="#A0616A"/>
<path id="Vector_8" d="M392.484 128.059C392.484 128.059 371.345 108.43 362.537 116.063C353.73 123.697 386.318 148.78 389.841 146.599C393.364 144.418 392.484 128.059 392.484 128.059Z" fill="#A0616A"/>
<path id="Vector_9" d="M372.226 216.394L340.518 222.937V240.386C340.518 240.386 310.572 252.382 310.572 257.835C310.572 263.287 302.645 284.008 302.645 284.008C302.645 284.008 283.268 301.457 299.122 322.177C299.122 322.177 305.287 334.173 300.883 335.264C296.479 336.354 286.791 339.626 291.195 343.988C295.599 348.35 361.657 377.795 366.941 375.614C372.226 373.433 412.741 296.004 412.741 276.374C412.741 256.744 396.007 228.39 396.007 228.39L376.63 225.118L372.226 216.394Z" fill="#D0CDE1"/>
<path id="Vector_10" d="M313.214 256.744C313.214 256.744 300.883 254.563 296.479 273.102C292.075 291.642 277.102 351.622 277.102 351.622C277.102 351.622 223.375 350.531 209.283 334.173L203.117 359.256C203.117 359.256 284.149 395.244 291.195 388.7C298.241 382.157 329.068 276.374 329.068 276.374L313.214 256.744Z" fill="#D0CDE1"/>
<path id="Vector_11" d="M393.364 231.662L396.007 228.39C396.007 228.39 429.476 183.677 428.595 172.772C428.595 172.772 410.98 145.508 388.961 153.142C388.961 153.142 379.272 123.697 394.245 124.788C409.218 125.878 464.707 121.516 463.826 153.142C462.946 184.768 410.099 281.827 410.099 281.827L393.364 231.662Z" fill="#D0CDE1"/>
<path id="Vector_12" d="M370.302 422.551C362.254 424.184 354.113 425.003 345.958 425C320.046 425.05 294.576 416.696 272.083 400.769L277.317 387.645L293.978 345.838L294.719 343.987L306.855 348.517L367.822 371.254L367.989 374.738L370.302 422.551Z" fill="#2F2E41"/>
<path id="Vector_13" d="M380.805 160.918C384.096 148.944 374.444 134.047 359.247 127.644C344.051 121.242 329.064 125.758 325.773 137.732C322.482 149.706 332.134 164.603 347.331 171.006C362.528 177.408 377.515 172.892 380.805 160.918Z" fill="#2F2E41"/>
<path id="Vector_14" d="M85.1786 197.153C91.2994 183.267 105.96 174.475 117.952 182.4C123.351 185.967 127.642 192.277 129.004 199.736C130.586 208.4 127.254 216.661 123.815 223.94C121.949 227.89 119.904 231.761 118.36 235.928C116.76 240.243 115.617 245.231 116.822 249.925C117.906 254.155 120.623 257.231 123.6 259.492C126.885 261.892 130.379 263.823 134.015 265.249C141.5 268.331 149.396 269.596 157.268 268.974C161.18 268.645 165.06 267.868 168.857 266.654C172.896 265.379 176.86 263.763 180.906 262.519C187.661 260.441 195.362 259.409 201.767 263.583C207.99 267.639 210.775 276.12 211.636 284.371C213.227 299.607 208.348 315.419 199.539 326.09C195.312 331.209 189.994 335.438 184.201 337.168C179.146 338.678 172.656 338.581 168.634 333.903C164.146 328.682 165.2 320.309 168.766 314.8C173.317 307.771 181.025 306.083 187.904 305.912C195.73 305.718 203.547 307.161 211.368 306.264C215.185 305.896 218.931 304.777 222.464 302.949C225.57 301.258 228.403 298.884 230.826 295.943C235.654 290.135 238.909 282.398 240.53 274.353C242.48 264.678 242.055 254.511 240.541 244.794C239.735 239.783 238.696 234.834 237.43 229.97C236.908 227.918 234.291 228.795 234.817 230.862C239.478 249.162 242.077 270.322 233.072 287.312C229.345 294.517 223.539 299.692 216.838 301.781C209.044 304.179 200.866 302.994 192.942 302.637C185.408 302.297 177.136 302.663 170.677 308.097C165.378 312.553 161.673 321.03 163.274 329.032C164.819 336.749 170.808 340.662 176.799 341.266C183.084 341.901 189.27 339.288 194.548 335.204C205.529 326.708 212.83 311.766 214.358 295.924C215.154 287.67 214.344 278.778 211.321 271.286C209.728 267.23 207.248 263.808 204.164 261.409C201.088 259.075 197.535 257.926 193.968 257.519C185.862 256.594 178.073 260.04 170.384 262.676C166.456 264.087 162.43 265.039 158.358 265.519C154.406 265.924 150.431 265.844 146.492 265.279C142.584 264.708 138.732 263.65 134.995 262.12C131.333 260.718 127.827 258.756 124.558 256.278C121.675 253.995 119.181 250.725 119.039 246.271C118.885 241.439 120.853 236.919 122.724 232.845C126.422 224.797 130.988 216.926 131.953 207.504C132.798 199.264 130.12 191.141 125.496 185.263C123.178 182.28 120.387 179.921 117.299 178.335C114.211 176.748 110.892 175.969 107.549 176.045C100.687 176.288 94.1168 179.982 89.0697 185.657C86.5671 188.473 84.4612 191.786 82.8387 195.46C82.0029 197.356 84.342 199.051 85.1786 197.153V197.153Z" fill="#3F3D56"/>
<path id="Vector_15" d="M89.8768 19.0132C85.5768 19.0134 81.3939 20.7486 77.9618 23.956C74.5296 27.1635 72.0351 31.6683 70.8559 36.7884C69.6768 41.9085 69.8774 47.3649 71.4272 52.3312C72.977 57.2976 75.7917 61.5033 79.445 64.3115C79.5024 64.3558 79.5634 64.3937 79.6213 64.4373C80.3515 61.7875 81.7329 59.4869 83.5719 57.8579C85.411 56.2288 87.6156 55.353 89.8768 55.353C92.138 55.353 94.3426 56.2288 96.1817 57.8579C98.0208 59.4869 99.4022 61.7875 100.132 64.4373C100.19 64.3937 100.251 64.3558 100.309 64.3115C103.962 61.5033 106.777 57.2976 108.326 52.3312C109.876 47.3649 110.077 41.9085 108.898 36.7884C107.719 31.6683 105.224 27.1635 101.792 23.956C98.3597 20.7486 94.1768 19.0134 89.8768 19.0132V19.0132ZM89.8768 52.983C88.4887 52.983 87.1318 52.4733 85.9776 51.5184C84.8234 50.5636 83.9239 49.2064 83.3927 47.6185C82.8615 46.0306 82.7225 44.2834 82.9933 42.5977C83.2641 40.912 83.9325 39.3636 84.9141 38.1483C85.8956 36.9329 87.1462 36.1053 88.5076 35.77C89.869 35.4347 91.2802 35.6068 92.5626 36.2645C93.8451 36.9222 94.9412 38.0361 95.7124 39.4651C96.4836 40.8942 96.8952 42.5743 96.8952 44.293C96.8952 46.5977 96.1557 48.808 94.8395 50.4377C93.5233 52.0674 91.7382 52.983 89.8768 52.983Z" fill="#3F3D56"/>
<path id="Vector_16" d="M56.0036 91.7105C57.9991 91.7105 59.6168 89.7076 59.6168 87.2368C59.6168 84.7661 57.9991 82.7632 56.0036 82.7632C54.0082 82.7632 52.3905 84.7661 52.3905 87.2368C52.3905 89.7076 54.0082 91.7105 56.0036 91.7105Z" fill="#3F3D56"/>
<path id="Vector_17" d="M56.0036 111.842C57.9991 111.842 59.6168 109.839 59.6168 107.368C59.6168 104.898 57.9991 102.895 56.0036 102.895C54.0082 102.895 52.3905 104.898 52.3905 107.368C52.3905 109.839 54.0082 111.842 56.0036 111.842Z" fill="#3F3D56"/>
<path id="Vector_18" d="M56.0036 131.974C57.9991 131.974 59.6168 129.971 59.6168 127.5C59.6168 125.029 57.9991 123.026 56.0036 123.026C54.0082 123.026 52.3905 125.029 52.3905 127.5C52.3905 129.971 54.0082 131.974 56.0036 131.974Z" fill="#3F3D56"/>
<path id="Vector_19" d="M56.0036 152.105C57.9991 152.105 59.6168 150.102 59.6168 147.632C59.6168 145.161 57.9991 143.158 56.0036 143.158C54.0082 143.158 52.3905 145.161 52.3905 147.632C52.3905 150.102 54.0082 152.105 56.0036 152.105Z" fill="#3F3D56"/>
<path id="Vector_20" d="M110.201 123.026H69.5529C67.5574 123.026 65.9398 125.029 65.9398 127.5V127.5C65.9398 129.971 67.5574 131.974 69.5529 131.974H110.201C112.196 131.974 113.814 129.971 113.814 127.5C113.814 125.029 112.196 123.026 110.201 123.026Z" fill="#3F3D56"/>
<path id="Vector_21" d="M110.201 143.158H69.5529C67.5574 143.158 65.9398 145.161 65.9398 147.632C65.9398 150.102 67.5574 152.105 69.5529 152.105H110.201C112.196 152.105 113.814 150.102 113.814 147.632C113.814 145.161 112.196 143.158 110.201 143.158Z" fill="#3F3D56"/>
<path id="Vector_22" d="M110.201 102.895H69.5529C67.5574 102.895 65.9398 104.898 65.9398 107.368V107.368C65.9398 109.839 67.5574 111.842 69.5529 111.842H110.201C112.196 111.842 113.814 109.839 113.814 107.368C113.814 104.898 112.196 102.895 110.201 102.895Z" fill="#3F3D56"/>
<path id="Vector_23" d="M110.201 82.7632H69.5529C67.5574 82.7632 65.9398 84.7661 65.9398 87.2368V87.2368C65.9398 89.7076 67.5574 91.7105 69.5529 91.7105H110.201C112.196 91.7105 113.814 89.7076 113.814 87.2368C113.814 84.7661 112.196 82.7632 110.201 82.7632Z" fill="#3F3D56"/>
</g>
<defs>
<clipPath id="clip0">
<rect width="495" height="425" fill="white"/>
</clipPath>
</defs>
</svg>
